# xmcd
#
# Track frame offsets: 
#        150
#        21517
#        43105
#        64501
#
# Disc length: 1146 seconds
#
# Revision: 7
# Processed by: cddbd v1.5.2PL0 Copyright (c) Steve Scherf et al.
# Submitted via: ExactAudioCopyFreeDBPlugin 1.0
#
DISCID=30047804
DTITLE=DEATH DEVIL［山中さわ子(CV：真田アサミ)］ - Maddy Candy
DYEAR=2009
DGENRE=アニメ
TTITLE0=Maddy Candy
TTITLE1=Hell The World
TTITLE2=Maddy Candy (Instrumental)
TTITLE3=Hell The World (Instrumental)
EXTD=YEAR: 2009
EXTT0=
EXTT1=
EXTT2=
EXTT3=
PLAYORDER=
